<?xml version="1.0" encoding="utf-8"?>
<!-- Generator: Adobe Illustrator 16.0.0, SVG Export Plug-In . SVG Version: 6.00 Build 0)  -->
<!DOCTYPE svg PUBLIC "-//W3C//DTD SVG 1.1//EN" "http://www.w3.org/Graphics/SVG/1.1/DTD/svg11.dtd">
<svg version="1.1" id="Calque_1" focusable="false" xmlns="http://www.w3.org/2000/svg" xmlns:xlink="http://www.w3.org/1999/xlink"
	 x="0px" y="0px" width="500px" height="300px" viewBox="0 0 500 300" enable-background="new 0 0 500 300" xml:space="preserve">
<path fill="#F4F4F4" d="M371.875,150H325v-37.5c0-20.684,16.816-37.5,37.5-37.5h4.688c7.793,0,14.062-6.27,14.062-14.062V32.812
	c0-7.793-6.27-14.062-14.062-14.062H362.5c-51.797,0-93.75,41.953-93.75,93.75v140.625c0,15.527,12.598,28.125,28.125,28.125h75
	c15.527,0,28.125-12.598,28.125-28.125v-75C400,162.598,387.402,150,371.875,150z M203.125,150H156.25v-37.5
	c0-20.684,16.816-37.5,37.5-37.5h4.688c7.793,0,14.062-6.27,14.062-14.062V32.812c0-7.793-6.27-14.062-14.062-14.062h-4.688
	c-51.797,0-93.75,41.953-93.75,93.75v140.625c0,15.527,12.598,28.125,28.125,28.125h75c15.527,0,28.125-12.598,28.125-28.125v-75
	C231.25,162.598,218.652,150,203.125,150z"/>
</svg>
