<?xml version="1.0" encoding="utf-8"?>
<!-- Generator: Adobe Illustrator 16.0.0, SVG Export Plug-In . SVG Version: 6.00 Build 0)  -->
<!DOCTYPE svg PUBLIC "-//W3C//DTD SVG 1.1//EN" "http://www.w3.org/Graphics/SVG/1.1/DTD/svg11.dtd">
<svg version="1.1" id="Calque_1" focusable="false" xmlns="http://www.w3.org/2000/svg" xmlns:xlink="http://www.w3.org/1999/xlink"
	 x="0px" y="0px" width="500px" height="300px" viewBox="0 0 500 300" enable-background="new 0 0 500 300" xml:space="preserve">
<path fill="#F4F4F4" d="M371.875,18.75h-75c-15.527,0-28.125,12.598-28.125,28.125v75c0,15.527,12.598,28.125,28.125,28.125h46.875
	v37.5c0,20.684-16.816,37.5-37.5,37.5h-4.688c-7.793,0-14.062,6.27-14.062,14.062v28.125c0,7.793,6.27,14.062,14.062,14.062h4.688
	c51.797,0,93.75-41.953,93.75-93.75V46.875C400,31.348,387.402,18.75,371.875,18.75z M203.125,18.75h-75
	C112.598,18.75,100,31.348,100,46.875v75C100,137.402,112.598,150,128.125,150H175v37.5c0,20.684-16.816,37.5-37.5,37.5h-4.688
	c-7.793,0-14.062,6.27-14.062,14.062v28.125c0,7.793,6.27,14.062,14.062,14.062h4.688c51.797,0,93.75-41.953,93.75-93.75V46.875
	C231.25,31.348,218.652,18.75,203.125,18.75z"/>
</svg>
